<?xml version="1.0" encoding="UTF-8"?><svg id="Layer_2" xmlns="http://www.w3.org/2000/svg" viewBox="0 0 225.25 63.97"><defs><style>.cls-1{fill:#939598;stroke:#939598;stroke-width:2px;}.cls-1,.cls-2{stroke-miterlimit:10;}.cls-2{stroke:#00a88f;stroke-width:3px;}.cls-2,.cls-3{fill:#00a88f;}.cls-3{stroke-width:0px;}</style></defs><g id="Layer_1-2"><path class="cls-2" d="m83.06,18.76c.33-2.01.48-1.8.3-3.92-.58-6.9-6.98-12.54-15.59-12.54s-15.59,5.61-15.59,12.54c0,2.15.68,4.31,1.85,7.28l12.9,32.56h2.28l13.13-34.07c.22-.46.4-.94.55-1.43l.16-.42Zm-2.34-.59l-.02.09-.06.15-.02.08c-.12.38-.26.75-.43,1.12l-.07.15-12.05,31.27-10.48-25.99-1.97-4.61c-.83-1.99-1.04-3.97-1.04-5.59,0-5.6,5.92-10.16,13.2-10.16s12.4,4.33,13.2,10.16c.09.65.23,1.28-.26,3.33Z"/><path class="cls-1" d="m1,54.68V1h1.56v53.68h-1.56Z"/><path class="cls-1" d="m15.77,37.99c0,1.99.3,3.95.89,5.89.59,1.94,1.49,3.68,2.7,5.22,1.21,1.54,2.73,2.78,4.58,3.73,1.85.95,4.02,1.42,6.53,1.42s4.83-.51,6.82-1.53c1.99-1.02,3.72-2.5,5.18-4.44l1.14.99c-1.61,2.08-3.49,3.67-5.64,4.76-2.15,1.09-4.65,1.63-7.49,1.63-2.41,0-4.62-.44-6.6-1.31-1.99-.88-3.7-2.09-5.15-3.66-1.44-1.56-2.56-3.43-3.34-5.61-.78-2.18-1.17-4.54-1.17-7.1s.4-4.73,1.21-6.82c.81-2.08,1.91-3.88,3.31-5.4,1.4-1.51,3.05-2.69,4.95-3.51,1.9-.83,3.94-1.24,6.12-1.24,2.56,0,4.79.45,6.69,1.35,1.9.9,3.47,2.08,4.73,3.55,1.26,1.47,2.19,3.14,2.81,5.01.62,1.87.93,3.78.93,5.72v1.35H15.77Zm27.62-1.35c-.05-2.13-.42-4.07-1.1-5.82-.69-1.75-1.62-3.25-2.8-4.51-1.18-1.25-2.6-2.22-4.26-2.91-1.66-.69-3.5-1.03-5.54-1.03-2.46,0-4.57.51-6.32,1.53-1.75,1.02-3.18,2.27-4.3,3.76-1.11,1.49-1.93,3.05-2.45,4.69-.52,1.63-.78,3.07-.78,4.3h27.55Z"/><path class="cls-1" d="m92.83,37.99c0,1.99.3,3.95.89,5.89.59,1.94,1.49,3.68,2.7,5.22,1.21,1.54,2.73,2.78,4.58,3.73,1.85.95,4.02,1.42,6.53,1.42s4.83-.51,6.82-1.53c1.99-1.02,3.72-2.5,5.18-4.44l1.14.99c-1.61,2.08-3.49,3.67-5.64,4.76-2.15,1.09-4.65,1.63-7.49,1.63-2.41,0-4.62-.44-6.6-1.31-1.99-.88-3.7-2.09-5.15-3.66-1.44-1.56-2.56-3.43-3.34-5.61-.78-2.18-1.17-4.54-1.17-7.1s.4-4.73,1.21-6.82c.81-2.08,1.91-3.88,3.31-5.4,1.4-1.51,3.05-2.69,4.95-3.51,1.9-.83,3.94-1.24,6.12-1.24,2.56,0,4.79.45,6.69,1.35,1.9.9,3.47,2.08,4.73,3.55,1.26,1.47,2.19,3.14,2.81,5.01.62,1.87.92,3.78.92,5.72v1.35h-29.18Zm27.62-1.35c-.05-2.13-.42-4.07-1.1-5.82-.69-1.75-1.62-3.25-2.8-4.51-1.18-1.25-2.6-2.22-4.26-2.91-1.66-.69-3.5-1.03-5.54-1.03-2.46,0-4.57.51-6.32,1.53-1.75,1.02-3.18,2.27-4.3,3.76-1.11,1.49-1.93,3.05-2.45,4.69-.52,1.63-.78,3.07-.78,4.3h27.55Z"/><path class="cls-1" d="m139.98,23.26c2.08-1.49,4.33-2.24,6.75-2.24h.64c.19,0,.4.02.64.07v1.35c-.19-.05-.37-.07-.53-.07h-.39c-2.08,0-3.86.46-5.33,1.38-1.47.92-2.67,2.13-3.62,3.62-.95,1.49-1.65,3.15-2.09,4.97-.45,1.82-.67,3.63-.67,5.43v16.9h-1.56v-24.42c0-.52-.01-1.16-.04-1.92-.02-.76-.05-1.53-.07-2.31-.02-.78-.06-1.53-.11-2.24-.05-.71-.1-1.3-.14-1.78h1.56c.05.47.08,1.06.11,1.78.02.71.05,1.48.07,2.31.02.83.05,1.63.07,2.41.02.78.04,1.48.04,2.09h.14c.95-3.41,2.46-5.86,4.54-7.35Z"/><path class="cls-1" d="m153.54,37.99c0,1.99.29,3.95.89,5.89.59,1.94,1.49,3.68,2.7,5.22,1.21,1.54,2.73,2.78,4.58,3.73,1.85.95,4.02,1.42,6.53,1.42s4.83-.51,6.82-1.53c1.99-1.02,3.72-2.5,5.18-4.44l1.14.99c-1.61,2.08-3.49,3.67-5.64,4.76-2.15,1.09-4.65,1.63-7.49,1.63-2.41,0-4.62-.44-6.6-1.31-1.99-.88-3.7-2.09-5.15-3.66-1.44-1.56-2.56-3.43-3.34-5.61-.78-2.18-1.17-4.54-1.17-7.1s.4-4.73,1.21-6.82c.81-2.08,1.91-3.88,3.31-5.4,1.4-1.51,3.05-2.69,4.95-3.51,1.9-.83,3.94-1.24,6.12-1.24,2.56,0,4.79.45,6.69,1.35,1.9.9,3.47,2.08,4.73,3.55,1.26,1.47,2.19,3.14,2.81,5.01.62,1.87.92,3.78.92,5.72v1.35h-29.18Zm27.62-1.35c-.05-2.13-.42-4.07-1.1-5.82-.69-1.75-1.62-3.25-2.8-4.51-1.18-1.25-2.6-2.22-4.26-2.91-1.66-.69-3.5-1.03-5.54-1.03-2.46,0-4.57.51-6.32,1.53-1.75,1.02-3.18,2.27-4.29,3.76-1.11,1.49-1.93,3.05-2.45,4.69-.52,1.63-.78,3.07-.78,4.3h27.55Z"/><path class="cls-1" d="m222.69,1h1.56v53.68h-1.56v-8.8h-.21c-1.42,3.22-3.44,5.66-6.07,7.31-2.63,1.66-5.5,2.49-8.63,2.49-2.37,0-4.56-.44-6.57-1.31-2.01-.88-3.74-2.08-5.18-3.62-1.44-1.54-2.57-3.36-3.37-5.47-.81-2.11-1.21-4.39-1.21-6.85s.4-4.76,1.21-6.89c.8-2.13,1.93-3.98,3.37-5.54,1.44-1.56,3.17-2.78,5.18-3.66,2.01-.88,4.2-1.31,6.57-1.31,3.12,0,6,.83,8.63,2.48,2.63,1.66,4.65,4.12,6.07,7.38h.21V1Zm-29.68,37.42c0,2.13.34,4.17,1.03,6.11.69,1.94,1.67,3.63,2.95,5.08,1.28,1.44,2.83,2.59,4.65,3.44,1.82.85,3.87,1.28,6.14,1.28s4.18-.43,6-1.28c1.82-.85,3.4-2,4.72-3.44,1.32-1.44,2.37-3.13,3.12-5.08.76-1.94,1.14-4,1.14-6.18s-.38-4.24-1.14-6.18c-.76-1.94-1.8-3.63-3.12-5.08-1.33-1.44-2.9-2.59-4.72-3.44-1.82-.85-3.82-1.28-6-1.28s-4.32.44-6.14,1.31c-1.82.88-3.37,2.05-4.65,3.51-1.28,1.47-2.26,3.17-2.95,5.11-.69,1.94-1.03,3.98-1.03,6.11Z"/><path class="cls-3" d="m79.17,51.01c-.6,1.09-.13,2.42.99,2.96,1.21.58,1.91,1.27,1.91,1.99,0,2.16-6.12,3.91-13.68,3.91s-13.68-1.75-13.68-3.91c0-.7.64-1.36,1.77-1.92.95-.48,1.32-1.64.79-2.57h0c-.66-1.13-2.07-1.63-3.27-1.09-2.91,1.3-4.79,3.14-4.79,5.58,0,5.53,9.63,8,19.17,8s19.17-2.47,19.17-8c0-2.69-2.28-4.65-5.71-5.96-1.01-.38-2.15.02-2.67.96l-.02.04Z"/><circle class="cls-2" cx="67.71" cy="17.15" r="4.06"/></g></svg>